<svg width="95" height="75" viewBox="0 0 95 75" fill="none" xmlns="http://www.w3.org/2000/svg">
<path d="M36.1543 0L33.5045 0.318644C33.5045 0.318644 21.6159 1.61695 12.9336 8.58305H12.8318L12.7232 8.68474C10.7757 10.4746 9.9275 12.6746 8.58732 15.8915C7.00753 19.7619 5.66265 23.7239 4.56 27.7559C2.0425 36.8508 0 47.8678 0 57.9458V58.7932L0.424107 59.6407C3.56589 65.1492 9.14375 68.6576 14.3145 71.0814C19.4818 73.5051 23.9502 74.7898 27.0377 74.8949L29.053 75L30.1116 73.2L33.8234 66.6305C37.7591 67.5186 42.292 68.1153 47.5 68.1153C52.708 68.1153 57.2409 67.5186 61.1766 66.6305L64.8884 73.2L65.9504 75L67.9623 74.8949C71.0498 74.7898 75.5182 73.5051 80.6855 71.0814C85.8562 68.6576 91.4341 65.1492 94.5759 59.6407L95 58.7932V57.9458C95 47.8678 92.9575 36.8508 90.44 27.7559C89.3373 23.7239 87.9925 19.7619 86.4127 15.8915C85.0725 12.6712 84.2243 10.4746 82.2768 8.68814L82.1716 8.57966H82.063C73.3875 1.61695 61.4955 0.318644 61.4955 0.318644L58.8457 0L57.8889 2.43729C57.8889 2.43729 56.9084 4.91186 56.3011 7.73559C53.3842 7.3335 50.4444 7.12062 47.5 7.0983C45.6848 7.0983 42.5464 7.21695 38.6989 7.73559C38.0882 4.91186 37.1077 2.43729 37.1077 2.43729L36.1543 0ZM31.4891 7.73559C31.635 8.21017 31.7809 8.62034 31.9132 9.00678C27.5263 10.0915 22.8475 11.7458 18.5555 14.4068L22.1588 20.1288C30.9598 14.6712 43.6016 13.878 47.5 13.878C51.395 13.878 64.0402 14.6712 72.8412 20.1288L76.4445 14.4068C72.1525 11.7458 67.4737 10.0915 63.0868 9.00339C63.2191 8.62034 63.365 8.21017 63.5109 7.7322C66.6764 8.36949 72.7225 9.82712 77.7168 13.7729C77.6896 13.7864 78.9891 15.7458 80.1562 18.539C81.3505 21.4136 82.6737 25.2407 83.868 29.5559C86.1616 37.8305 87.9632 47.9085 88.1091 56.7797C85.9716 60.0373 82.0121 62.9763 77.822 64.939C75.1941 66.1796 72.414 67.0687 69.5536 67.5831L67.8571 64.7254C68.8648 64.3525 69.8589 63.9458 70.7207 63.5593C75.9423 61.2678 78.7787 58.7932 78.7787 58.7932L74.3239 53.7085C74.3239 53.7085 72.4171 55.4576 67.9623 57.417C63.5143 59.3763 56.7116 61.3356 47.5 61.3356C38.2884 61.3356 31.4891 59.3763 27.0377 57.417C22.5829 55.4576 20.6761 53.7085 20.6761 53.7085L16.2213 58.7932C16.2213 58.7932 19.0577 61.2678 24.2793 63.5593C25.2202 63.9806 26.1753 64.3696 27.1429 64.7254L25.4464 67.5864C22.5845 67.0702 19.8032 66.1789 17.1746 64.9356C12.9879 62.9763 9.025 60.0373 6.89429 56.7797C7.03679 47.9085 8.83839 37.8305 11.1354 29.5559C12.1503 25.813 13.3886 22.1341 14.8438 18.539C16.0109 15.7458 17.3104 13.7864 17.2832 13.7729C22.2775 9.82712 28.3236 8.36949 31.4891 7.73559ZM35.625 30.8271C33.0023 30.8271 30.6816 32.322 29.2634 34.2169C27.8452 36.1119 27.1429 38.4407 27.1429 40.9966C27.1429 43.5525 27.8452 45.8814 29.2634 47.7763C30.6816 49.6712 33.0023 51.1661 35.625 51.1661C38.2477 51.1661 40.5684 49.6712 41.9866 47.7763C43.4048 45.8814 44.1071 43.5525 44.1071 40.9966C44.1071 38.4407 43.4048 36.1119 41.9866 34.2169C40.5684 32.322 38.2477 30.8271 35.625 30.8271ZM59.375 30.8271C56.7523 30.8271 54.4316 32.322 53.0134 34.2169C51.5952 36.1119 50.8929 38.4407 50.8929 40.9966C50.8929 43.5525 51.5952 45.8814 53.0134 47.7763C54.4316 49.6712 56.7523 51.1661 59.375 51.1661C61.9977 51.1661 64.3184 49.6712 65.7366 47.7763C67.1548 45.8814 67.8571 43.5525 67.8571 40.9966C67.8571 38.4407 67.1548 36.1119 65.7366 34.2169C64.3184 32.322 61.9977 30.8271 59.375 30.8271ZM35.625 37.6068C35.8116 37.6068 36.0491 37.6746 36.4732 38.2441C36.8973 38.8102 37.3214 39.8034 37.3214 40.9966C37.3214 42.1898 36.8973 43.1831 36.4732 43.7525C36.0491 44.3186 35.8116 44.3864 35.625 44.3864C35.4384 44.3864 35.2009 44.3186 34.7768 43.7492C34.2157 42.9415 33.9193 41.9797 33.9286 40.9966C33.9286 39.8034 34.3527 38.8102 34.7768 38.2407C35.2009 37.6746 35.4384 37.6068 35.625 37.6068ZM59.375 37.6068C59.5616 37.6068 59.7991 37.6746 60.2232 38.2441C60.6473 38.8102 61.0714 39.8034 61.0714 40.9966C61.0714 42.1898 60.6473 43.1831 60.2232 43.7525C59.7991 44.3186 59.5616 44.3864 59.375 44.3864C59.1884 44.3864 58.9509 44.3186 58.5268 43.7492C57.9657 42.9415 57.6693 41.9797 57.6786 40.9966C57.6786 39.8034 58.1027 38.8102 58.5268 38.2407C58.9509 37.6746 59.1884 37.6068 59.375 37.6068Z" fill="#7E7E7E"/>
</svg>
